<svg width="93" height="506" viewBox="0 0 93 506" fill="none" xmlns="http://www.w3.org/2000/svg">
<path d="M15.6871 18.6C14.3431 29.544 11.1751 39.144 4.16714 45L14.6311 51.528C22.8871 44.616 25.7671 33.192 27.3991 21.096L15.6871 18.6ZM74.6311 18.408C71.7511 26.952 66.3751 38.088 61.8631 45.192L71.8471 49.608C76.6471 42.888 82.5031 32.616 87.3991 23.304L74.6311 18.408ZM46.2151 0.839996H39.9751V30.984C39.9751 45.384 31.2391 68.712 2.24714 79.752C4.74314 82.152 8.77514 87.048 10.3111 89.64C33.0631 79.944 43.6231 61.224 46.2151 51.432C48.9031 60.936 60.5191 80.232 83.5591 89.64C85.2871 86.28 88.9351 81.384 91.5271 78.792C61.5751 67.752 52.5511 45.48 52.5511 30.888V0.839996H46.2151ZM55.5271 154.24L42.3751 153.856C41.4151 163.936 39.3031 174.976 36.5191 184C32.4871 196.96 28.8391 203.104 24.7111 203.104C21.0631 203.104 17.2231 198.4 17.2231 188.704C17.2231 176.608 28.3591 160 48.7111 160C65.3191 160 74.7271 170.752 74.7271 185.824C74.7271 199.936 65.1271 208.672 52.9351 211.648C50.3431 212.224 47.6551 212.704 43.9111 213.184L51.2071 224.512C75.3991 220.768 87.7831 206.464 87.7831 186.304C87.7831 165.28 72.7111 148.768 48.9991 148.768C24.1351 148.768 4.83914 167.776 4.83914 189.856C4.83914 206.08 13.6711 217.888 24.4231 217.888C34.8871 217.888 43.1431 205.984 48.9031 186.592C52.2631 175.264 54.1831 164.032 55.5271 154.24ZM26.1511 332.984V328.856H67.8151V332.984H26.1511ZM26.1511 322.136V318.008H67.8151V322.136H26.1511ZM79.2391 310.904H15.3031V340.088H79.2391V310.904ZM71.4631 291.704L59.4631 289.496C58.6951 292.088 57.1591 295.736 55.9111 298.424L66.0871 300.632C67.5271 298.328 69.3511 295.352 71.4631 291.704ZM33.9271 289.496L23.3671 291.608C24.7111 294.488 25.9591 298.232 26.3431 300.824L37.2871 298.328C36.7111 295.928 35.3671 292.28 33.9271 289.496ZM52.4551 277.496H40.8391V289.016H52.4551V277.496ZM88.6471 298.424H5.22314V307.352H88.6471V298.424ZM83.4631 282.584H9.83114V291.512H83.4631V282.584ZM23.6551 346.808L14.0551 343.256C11.7511 349.688 7.43114 355.928 1.38314 359.672L10.3111 365.72C17.1271 361.208 21.0631 354.104 23.6551 346.808ZM76.3591 342.104L67.4311 347.096C73.2871 352.376 79.8151 359.96 82.5031 365.144L92.1031 359.576C89.0311 354.2 82.2151 347.096 76.3591 342.104ZM42.9511 337.976L36.8071 344.024C42.1831 346.616 48.9991 350.648 52.3591 353.528L58.9831 346.808C55.3351 343.928 48.3271 340.184 42.9511 337.976ZM37.3831 354.584V344.6H26.1511V354.68C26.1511 363.8 29.1271 366.68 41.3191 366.68C43.7191 366.68 54.2791 366.68 56.8711 366.68C65.8951 366.68 68.9671 363.992 70.1191 353.144C67.2391 352.568 62.7271 351.032 60.4231 349.496C59.9431 356.312 59.2711 357.368 55.8151 357.368C53.1271 357.368 44.5831 357.368 42.5671 357.368C38.1511 357.368 37.3831 357.08 37.3831 354.584ZM3.78314 428.4V439.344H89.9911V428.4H3.78314ZM10.0231 451.344V462.192H84.1351V451.344H10.0231ZM40.5511 416.496V459.024H52.1671V416.496H40.5511ZM26.2471 473.04V491.568C26.2471 501.84 29.3191 505.104 41.7031 505.104C44.1031 505.104 54.5671 505.104 57.2551 505.104C66.9511 505.104 70.2151 501.648 71.4631 488.496C68.3911 487.824 63.5911 486.096 61.1911 484.368C60.8071 493.488 60.0391 494.832 56.1991 494.832C53.6071 494.832 44.9671 494.832 43.0471 494.832C38.4391 494.832 37.6711 494.448 37.6711 491.376V473.04H26.2471ZM33.1591 467.568C39.4951 471.216 46.9831 476.88 50.2471 481.104L58.5991 473.424C54.9511 469.2 47.1751 463.92 40.9351 460.656L33.1591 467.568ZM65.7031 476.496C72.4231 484.176 79.0471 494.448 81.3511 501.456L91.8151 495.888C89.2231 488.592 82.1191 478.8 75.3031 471.6L65.7031 476.496ZM12.8071 473.808C10.9831 482.64 7.14314 490.992 0.903138 496.176L10.6951 502.512C17.5111 496.368 20.9671 486.672 23.1751 477.072L12.8071 473.808Z" fill="#D66767"/>
</svg>
